<svg width="1200" height="400" viewBox="0 0 1200 400" fill="none" xmlns="http://www.w3.org/2000/svg">
<path d="M988.65 282.75C976.983 293.25 961.933 298.5 943.5 298.5C929.267 298.5 917.6 294.65 908.5 286.95C899.633 279.25 895.083 267.467 894.85 251.6V144.15H859.85V120H894.85V78L922.85 70.3V120H987.6V144.15H922.85V246.7C922.85 255.1 925.183 261.517 929.85 265.95C934.75 270.15 941.167 272.25 949.1 272.25C960.3 272.25 970.217 267.933 978.85 259.3L988.65 282.75Z" fill="#132660"/>
<path d="M280.024 60.5C321.324 60.5 351.074 76.8333 369.274 109.5L345.124 129.1C338.124 113.7 329.724 102.85 319.924 96.55C310.358 90.0167 297.174 86.75 280.374 86.75C262.641 86.75 248.641 90.4833 238.374 97.95C228.341 105.183 223.324 114.517 223.324 125.95C223.324 133.417 225.308 139.6 229.274 144.5C233.241 149.4 239.774 153.717 248.874 157.45C258.208 160.95 271.041 164.1 287.374 166.9C317.941 172.033 339.524 179.733 352.124 190C364.958 200.267 371.374 214.5 371.374 232.7C371.374 245.767 367.641 257.317 360.174 267.35C352.941 277.15 342.558 284.85 329.024 290.45C315.491 295.817 299.858 298.5 282.124 298.5C258.791 298.5 238.841 293.95 222.274 284.85C205.941 275.75 193.458 263.617 184.824 248.45L208.974 228.85C215.274 242.617 224.491 253.35 236.624 261.05C248.991 268.517 264.391 272.25 282.824 272.25C301.024 272.25 315.491 268.983 326.224 262.45C336.958 255.683 342.324 246.233 342.324 234.1C342.324 223.833 337.658 215.667 328.324 209.6C318.991 203.533 302.424 198.4 278.624 194.2C247.824 188.833 226.008 181.133 213.174 171.1C200.341 161.067 193.924 147.067 193.924 129.1C193.924 116.733 197.424 105.3 204.424 94.8C211.424 84.3 221.458 76.0167 234.524 69.95C247.591 63.65 262.758 60.5 280.024 60.5ZM509.184 116.5C533.684 116.5 553.051 124.667 567.284 141C581.751 157.1 588.984 179.267 588.984 207.5C588.984 235.733 581.751 258.017 567.284 274.35C553.051 290.45 533.684 298.5 509.184 298.5C496.351 298.5 484.801 295.7 474.534 290.1C464.501 284.5 456.684 277.033 451.084 267.7V368.5H423.084V120H447.584L449.334 150.45C454.468 140.183 462.284 132.017 472.784 125.95C483.518 119.65 495.651 116.5 509.184 116.5ZM506.034 274C523.068 274 536.484 268.05 546.284 256.15C556.084 244.017 560.984 227.8 560.984 207.5C560.984 187.2 556.084 171.1 546.284 159.2C536.484 147.067 523.068 141 506.034 141C489.234 141 475.818 146.833 465.784 158.5C455.984 170.167 451.084 185.8 451.084 205.4V209.6C451.084 229.2 455.984 244.833 465.784 256.5C475.818 268.167 489.234 274 506.034 274ZM670.143 248.1C670.143 256.967 671.427 263.15 673.993 266.65C676.793 269.917 681.81 271.55 689.043 271.55C693.943 271.55 698.143 271.2 701.643 270.5C705.376 269.8 709.693 268.517 714.593 266.65L710.043 293.6C702.343 296.867 693.71 298.5 684.143 298.5C669.91 298.5 659.293 294.65 652.293 286.95C645.526 279.25 642.143 267.467 642.143 251.6V39.5H670.143V248.1Z" fill="#132660"/>
<path d="M769.47 274.097L783.093 134.959H793.91L807.533 274.097C808.055 279.468 806.288 284.811 802.666 288.801C799.041 292.798 793.899 295.076 788.5 295.076C783.104 295.076 777.962 292.799 774.337 288.801C770.714 284.811 768.948 279.469 769.47 274.097Z" fill="#5570DD"/>
<path d="M811.926 18.6667C811.926 16.0854 814.013 14 816.585 14C819.027 14 821.002 15.9743 821 18.4091V81H756V18.4091C756 15.9743 757.978 14 760.42 14C762.991 14 765.079 16.0854 765.079 18.6667V76.0711C765.079 78.6603 767.174 80.7554 769.763 80.7554C772.352 80.7554 774.448 78.6603 774.448 76.0711V18.6667C774.448 16.0854 776.533 14 779.104 14H779.16C781.732 14 783.817 16.0854 783.817 18.6667V76.0711C783.817 78.6603 785.912 80.7554 788.501 80.7554C791.092 80.7554 793.188 78.6603 793.188 76.0711V18.6667C793.188 16.0854 795.273 14 797.844 14H797.899C800.469 14 802.557 16.0854 802.557 18.6667V76.0711C802.557 78.6603 804.652 80.7554 807.242 80.7554C809.83 80.7554 811.926 78.6603 811.926 76.0711V18.6667Z" fill="#95A8EA"/>
<path d="M788.5 120C806.449 120 821 98.9493 821 81H756C756 98.9493 770.551 120 788.5 120Z" fill="#95A8EA"/>
</svg>
