<svg width="62" height="71" viewBox="0 0 62 71" fill="none" xmlns="http://www.w3.org/2000/svg">
<path d="M61.9733 64.0868C61.9728 64.3519 61.9723 64.6099 61.9719 64.8609C61.9664 68.2531 59.3348 71 56.0904 71H5.88351C2.64243 71 0.0121844 68.2585 0.0020513 64.8697C0.00129264 64.616 0.000608873 64.355 0 64.0868C0.0658658 62.0336 0.0658659 59.3069 2.96221 55.8125C4.678 53.7425 5.97844 52.7977 8.50861 51.228C11.8817 49.272 15.7692 47.3506 19.3651 45.8597C23.7314 43.9224 24.5174 40.6837 21.5483 36.9199C16.1122 29.984 13.587 22.1312 15.0861 13.2579C16.3742 5.56041 22.8 0.317804 30.4629 0.0146346C40.8985 -0.377267 47.9283 7.14281 47.9283 17.6502C47.9367 24.4563 45.622 31.0547 41.3788 36.321C39.9888 38.0956 39.1519 39.8777 39.4066 42.1773C39.497 43.6262 40.4136 44.8873 41.7499 45.4013C45.8906 47.2572 50.0605 49.0541 54.0339 51.228C56.4717 52.559 58.2474 53.6386 59.7247 55.8125C61.3673 58.2358 62.1594 61.1504 61.9733 64.0868Z" fill="#A2A2A2"/>
</svg>
